<?xml version="1.0" standalone="no"?>
<!DOCTYPE svg PUBLIC "-//W3C//DTD SVG 20010904//EN"
 "http://www.w3.org/TR/2001/REC-SVG-20010904/DTD/svg10.dtd">
<svg version="1.0" xmlns="http://www.w3.org/2000/svg"
 width="1556.000000pt" height="1556.000000pt" viewBox="0 0 1556.000000 1556.000000"
 preserveAspectRatio="xMidYMid meet">
<metadata>
Created by potrace 1.11, written by Peter Selinger 2001-2013
</metadata>
<g transform="translate(0.000000,1556.000000) scale(0.100000,-0.100000)"
fill="#000000" stroke="none">
<path d="M15301 11298 c-36 -10 -69 -32 -181 -118 -36 -27 -87 -57 -115 -66
-87 -29 -176 -79 -352 -197 -147 -99 -183 -119 -259 -142 -316 -95 -587 -221
-1050 -491 -89 -52 -169 -94 -178 -94 -20 0 -265 -111 -304 -138 -15 -10 -108
-53 -207 -97 -174 -76 -460 -217 -768 -379 -161 -85 -187 -109 -187 -178 0
-55 38 -93 115 -117 276 -86 344 -269 205 -556 -50 -103 -97 -157 -168 -192
-49 -24 -69 -28 -142 -28 -113 0 -179 23 -240 85 -72 71 -93 135 -95 290 -1
97 -6 133 -19 158 -33 64 -148 84 -205 36 -32 -27 -45 -63 -56 -154 -4 -42
-28 -98 -98 -237 -86 -169 -94 -182 -123 -188 -47 -8 -102 -53 -177 -142 -74
-90 -155 -151 -210 -160 -32 -5 -40 -2 -65 25 -40 42 -57 112 -87 347 -14 110
-28 207 -30 215 -3 8 -9 59 -15 113 -11 111 -27 149 -73 178 -25 16 -44 19
-86 16 -50 -4 -58 -8 -95 -49 -88 -99 -128 -149 -165 -210 -21 -35 -68 -107
-105 -162 -81 -122 -164 -289 -209 -421 l-33 -101 -59 141 c-32 77 -82 187
-111 245 -46 90 -55 118 -64 195 -18 148 -49 185 -152 185 -94 0 -142 -45
-209 -201 -93 -215 -233 -414 -428 -610 -152 -151 -305 -271 -499 -388 -219
-132 -519 -276 -667 -319 -38 -11 -129 -41 -200 -66 -110 -39 -255 -70 -255
-54 0 10 133 296 157 338 14 25 58 86 98 135 40 50 118 153 175 230 100 135
233 279 333 358 57 46 79 85 79 143 1 47 -18 85 -57 110 -37 24 -67 9 -203
-100 -326 -261 -521 -513 -861 -1112 -117 -206 -173 -283 -236 -323 -24 -15
-151 -65 -282 -111 -131 -45 -311 -114 -401 -152 -121 -52 -172 -68 -199 -66
-81 7 -98 91 -90 438 6 256 23 419 63 636 18 92 25 153 20 177 -8 42 -46 91
-87 112 -36 19 -122 19 -157 1 -38 -20 -86 -74 -112 -125 -30 -61 -35 -133
-21 -329 19 -262 29 -664 20 -760 -15 -145 -46 -220 -128 -305 -53 -55 -123
-99 -208 -128 -84 -29 -289 -79 -329 -81 -82 -3 -96 59 -95 442 1 418 9 572
34 655 19 63 22 93 21 294 l-1 224 -28 25 c-25 21 -36 24 -81 20 -69 -6 -174
-58 -213 -105 -18 -21 -35 -59 -42 -90 -11 -48 -9 -65 19 -185 44 -182 62
-307 69 -478 l6 -145 -27 -13 c-52 -24 -56 -51 -56 -407 0 -363 2 -351 -70
-399 -22 -14 -82 -38 -132 -52 -409 -115 -708 -220 -960 -337 -60 -28 -140
-55 -215 -72 -65 -15 -129 -34 -143 -43 -31 -20 -311 -74 -550 -108 -102 -14
-313 -52 -470 -84 -464 -97 -516 -104 -750 -104 -191 -1 -210 1 -275 23 -54
19 -81 36 -121 76 -77 77 -94 162 -53 270 39 104 258 375 462 571 314 303 618
524 1527 1114 239 155 563 367 720 470 425 280 657 414 1265 735 154 81 375
199 492 261 235 127 290 153 678 326 446 199 671 318 877 462 48 33 88 66 88
71 0 15 -128 81 -172 89 -59 11 -122 -12 -201 -71 -82 -61 -348 -195 -1150
-577 -1131 -539 -1191 -572 -1930 -1043 -161 -103 -495 -314 -744 -469 -908
-568 -1373 -905 -1704 -1234 -266 -266 -419 -523 -484 -813 -38 -172 -2 -302
119 -423 43 -43 87 -75 133 -97 l68 -32 320 0 c347 1 467 11 792 66 272 46
533 106 878 204 105 29 287 79 405 110 258 68 424 122 778 256 369 140 490
179 516 170 23 -9 37 -32 61 -106 21 -63 21 -76 0 -150 -26 -87 -24 -245 4
-359 12 -50 26 -140 31 -200 11 -141 40 -236 81 -270 24 -21 41 -26 83 -26 64
0 86 18 114 92 11 29 28 68 38 87 15 30 16 43 6 105 -11 64 -102 925 -102 959
0 8 18 19 41 26 22 7 117 46 211 87 93 41 204 86 246 100 74 24 209 51 216 43
4 -4 41 -627 55 -925 7 -158 10 -176 35 -227 33 -68 69 -99 164 -145 90 -43
151 -48 183 -15 18 18 23 39 31 125 11 120 4 186 -23 239 -14 28 -22 74 -29
179 -6 77 -24 277 -42 443 -17 166 -32 333 -32 370 -1 66 0 70 35 101 27 25
70 45 180 81 204 68 375 137 511 207 98 50 124 60 152 55 62 -10 83 -33 145
-161 109 -223 242 -328 449 -357 145 -20 516 24 887 106 170 38 656 167 887
236 110 32 148 78 126 155 -18 67 -110 83 -233 38 -443 -159 -960 -246 -1472
-248 -212 -1 -221 1 -270 72 -30 45 -44 247 -20 298 22 45 43 57 219 123 84
32 257 101 383 154 127 53 314 125 416 161 210 73 303 114 404 176 173 106
320 241 590 544 208 232 214 240 239 289 16 32 28 43 49 45 37 4 55 -12 63
-57 3 -20 16 -63 29 -96 12 -33 48 -148 79 -255 41 -143 73 -228 117 -319 72
-147 93 -171 148 -171 52 0 78 27 86 89 32 238 101 418 298 781 72 131 107
187 107 169 0 -68 49 -170 172 -359 120 -184 211 -250 358 -257 100 -5 124 8
261 136 128 121 199 216 230 309 33 101 85 161 127 148 10 -3 56 -43 103 -88
130 -126 249 -189 399 -210 206 -31 407 54 512 216 97 150 130 412 77 609 -15
59 -72 164 -118 219 -69 85 -78 144 -23 171 15 8 71 22 125 31 117 19 220 60
325 129 49 32 102 57 147 69 87 24 185 75 261 136 33 26 106 80 164 119 86 59
120 75 186 92 324 83 693 274 1014 525 137 107 200 161 200 174 0 6 5 12 10
12 6 0 10 -4 10 -10 0 -5 5 -10 11 -10 5 0 8 4 5 8 -3 5 27 25 67 45 40 21 99
52 132 70 33 18 114 62 180 97 66 34 163 86 215 114 52 27 126 67 164 87 59
31 72 43 83 75 12 34 12 40 -5 57 -25 25 -79 36 -121 25z"/>
</g>
</svg>
